<?xml version="1.0" encoding="iso-8859-1"?>
<!-- Generator: Adobe Illustrator 19.0.0, SVG Export Plug-In . SVG Version: 6.00 Build 0)  -->
<svg version="1.1" id="Capa_1" xmlns="http://www.w3.org/2000/svg" xmlns:xlink="http://www.w3.org/1999/xlink" x="0px" y="0px"
	 viewBox="0 0 512.002 512.002" style="enable-background:new 0 0 512.002 512.002;" xml:space="preserve">
<g>
	<g>
		<path d="M509.805,411.516L354.288,256.001l155.516-155.515c2.929-2.93,2.929-7.678,0-10.607L422.123,2.198
			c-1.407-1.407-3.314-2.197-5.303-2.197c-1.989,0-3.896,0.79-5.304,2.196L256,157.713L100.486,2.198
			c-2.93-2.928-7.678-2.928-10.607,0L2.197,89.879C0.79,91.286,0,93.194,0,95.183s0.79,3.896,2.196,5.304l155.517,155.514
			L93.212,320.5c-2.929,2.93-2.929,7.678,0,10.607c2.929,2.927,7.677,2.929,10.607,0l69.804-69.803
			c1.406-1.407,2.196-3.314,2.196-5.304s-0.79-3.896-2.196-5.304L18.107,95.183l77.075-77.075l155.515,155.516
			c2.93,2.928,7.678,2.928,10.607,0L416.82,18.108l77.074,77.075L338.378,250.698c-2.929,2.93-2.929,7.678,0,10.607L493.894,416.82
			l-77.074,77.075L261.304,338.379c-2.93-2.928-7.678-2.928-10.607,0L95.182,493.895L18.107,416.82l64.5-64.499
			c2.929-2.93,2.929-7.678,0-10.607c-2.931-2.929-7.679-2.928-10.607,0L2.197,411.516c-2.929,2.93-2.929,7.678,0,10.607
			l87.682,87.682c1.465,1.464,3.385,2.196,5.304,2.196s3.839-0.732,5.304-2.196L256,354.289l155.516,155.516
			c1.407,1.406,3.314,2.196,5.304,2.196s3.896-0.79,5.304-2.196l87.681-87.682C512.734,419.193,512.734,414.445,509.805,411.516z"/>
	</g>
</g>
<g>
</g>
<g>
</g>
<g>
</g>
<g>
</g>
<g>
</g>
<g>
</g>
<g>
</g>
<g>
</g>
<g>
</g>
<g>
</g>
<g>
</g>
<g>
</g>
<g>
</g>
<g>
</g>
<g>
</g>
</svg>
